<!-- <?xml version="1.0" standalone="no"?>
<!DOCTYPE svg PUBLIC "-//W3C//DTD SVG 20010904//EN"
 "http://www.w3.org/TR/2001/REC-SVG-20010904/DTD/svg10.dtd"> -->
<svg version="1.0" xmlns="http://www.w3.org/2000/svg"
 width="465.000000pt" height="63.000000pt" viewBox="0 0 465.000000 63.000000"
 preserveAspectRatio="xMidYMid meet">

<g transform="translate(0.000000,63.000000) scale(0.100000,-0.100000)"
fill="#000000" stroke="none">
<path d="M1205 615 c-139 -25 -234 -90 -266 -181 -22 -64 -17 -200 10 -256 42
-86 132 -145 252 -163 l46 -7 52 66 c29 36 50 70 46 76 -3 5 -32 10 -63 10
-72 0 -135 28 -156 69 -9 17 -16 55 -16 88 0 77 23 115 85 138 36 14 58 34
101 88 30 38 54 73 54 78 0 12 -60 10 -145 -6z"/>
<path d="M3200 613 c-34 -18 -56 -47 -367 -487 l-83 -116 110 0 110 0 142 200
c78 110 145 199 149 198 4 -2 65 -86 134 -188 70 -102 132 -191 139 -198 9 -9
42 -12 119 -10 l108 3 -191 275 c-105 151 -203 288 -219 304 -37 37 -101 45
-151 19z"/>
<path d="M68 546 c-32 -41 -58 -77 -58 -80 0 -3 130 -6 289 -6 277 0 289 -1
315 -21 43 -34 31 -88 -25 -108 -20 -7 -133 -11 -310 -11 l-279 0 0 -155 0
-155 95 0 95 0 0 80 0 80 148 0 148 0 65 -80 64 -79 123 -1 124 0 -40 48 c-22
26 -64 70 -94 98 l-54 51 48 22 c124 57 145 241 36 324 -72 55 -102 60 -378
65 l-255 3 -57 -75z"/>
<path d="M1438 559 c-27 -35 -48 -68 -48 -75 0 -7 27 -13 73 -16 39 -3 86 -12
103 -21 53 -27 75 -99 58 -186 -8 -40 -47 -78 -93 -91 -28 -7 -48 -25 -88 -78
-29 -38 -53 -75 -53 -82 0 -9 17 -11 68 -5 261 27 360 121 350 334 -3 72 -9
95 -31 134 -43 73 -140 129 -251 143 -41 5 -42 5 -88 -57z"/>
<path d="M2047 606 c-88 -24 -134 -73 -143 -153 -9 -70 20 -130 79 -164 40
-23 51 -24 278 -29 251 -5 273 -10 267 -54 -6 -40 -39 -46 -293 -46 l-240 0
-58 -76 -59 -75 339 3 c338 3 338 3 388 28 145 73 137 278 -13 320 -20 5 -131
10 -247 10 -219 0 -256 6 -263 43 -9 44 7 47 253 47 l233 0 61 80 62 80 -298
-1 c-211 0 -312 -4 -346 -13z"/>
<path d="M3647 546 c-31 -41 -57 -77 -57 -80 0 -3 63 -6 140 -6 l140 0 0 -225
0 -225 95 0 95 0 0 225 0 225 105 0 105 0 60 76 c33 41 60 77 60 80 0 2 -154
4 -343 4 l-343 0 -57 -74z"/>
<path d="M4460 315 l0 -305 95 0 95 0 0 305 0 305 -95 0 -95 0 0 -305z"/>
</g>
</svg>
